<svg width="16" height="15" viewBox="0 0 16 15" fill="none" xmlns="http://www.w3.org/2000/svg">
<g id="Vector">
<path d="M7.65911 0.329676C8.39504 0.0997006 9.14286 0.649485 9.14286 1.4205V2.72315H9.10714V14.7231H1.14286C0.511673 14.7231 0 14.2115 0 13.5803V3.56336C0 3.0635 0.324857 2.62163 0.801964 2.47254L7.65911 0.329676ZM5.71429 5.58029H3.42857V6.72314H5.71429V5.58029ZM3.42857 9.00886V10.1517H5.71429V9.00886H3.42857Z" fill="#1E1E1E"/>
<path d="M10.25 14.7231V3.77672L15.0966 4.81527C15.6235 4.9282 16 5.39386 16 5.93277V13.5803C16 14.2115 15.4883 14.7231 14.8571 14.7231H10.25ZM14.8571 9.00866L11.4285 9.00886L11.4286 10.1517L14.8572 10.1515L14.8571 9.00866Z" fill="#1E1E1E"/>
</g>
</svg>
