<svg t="1726112869518" class="icon" viewBox="0 0 1024 1024" version="1.1" xmlns="http://www.w3.org/2000/svg" p-id="2392" width="32" height="32"><path d="M64 256c0-53.019 42.981-96 96-96h704c53.019 0 96 42.981 96 96v480c0 53.019-42.981 96-96 96H273.348L115.513 953.436C94.47 969.627 64 954.625 64 928.074V256z m240 288c26.51 0 48-21.49 48-48s-21.49-48-48-48-48 21.49-48 48 21.49 48 48 48z m208 0c26.51 0 48-21.49 48-48s-21.49-48-48-48-48 21.49-48 48 21.49 48 48 48z m256-48c0-26.51-21.49-48-48-48s-48 21.49-48 48 21.49 48 48 48 48-21.49 48-48z" fill="#515151" p-id="2393"></path></svg>
