<svg width="24" height="24" viewBox="0 0 24 24" fill="none" xmlns="http://www.w3.org/2000/svg">
<path id="&#232;&#183;&#175;&#229;&#190;&#132; 1891" d="M22.861 7.94207L19.1773 11.7731C18.7431 12.2245 18.1543 12.4781 17.5403 12.4781C16.9263 12.4781 16.3375 12.2245 15.9033 11.7731L12.2177 7.94207C11.7836 7.4905 11.5397 6.87811 11.5397 6.23957C11.5397 5.60103 11.7836 4.98864 12.2177 4.53707L15.9013 0.70507C16.3355 0.253613 16.9244 0 17.5384 0C18.1523 0 18.7412 0.253613 19.1754 0.70507L22.859 4.53707C23.2934 4.98838 23.5376 5.60062 23.538 6.23916C23.5383 6.8777 23.2948 7.49023 22.861 7.94207ZM7.98692 23.9961H2.7773C2.16322 23.9961 1.57429 23.7424 1.14007 23.2908C0.705855 22.8392 0.461916 22.2267 0.461916 21.5881V16.1691C0.461916 15.5304 0.705855 14.9179 1.14007 14.4664C1.57429 14.0148 2.16322 13.7611 2.7773 13.7611H7.98692C8.601 13.7611 9.18993 14.0148 9.62414 14.4664C10.0584 14.9179 10.3023 15.5304 10.3023 16.1691V21.5881C10.3023 22.2267 10.0584 22.8392 9.62414 23.2908C9.18993 23.7424 8.601 23.9961 7.98692 23.9961ZM7.98692 11.3531H2.7773C2.47299 11.3531 2.17167 11.2907 1.89057 11.1695C1.60947 11.0483 1.35409 10.8707 1.13905 10.6467C0.924013 10.4228 0.753522 10.157 0.637333 9.86449C0.521144 9.572 0.461537 9.25854 0.461916 8.94207V3.52607C0.461916 2.88743 0.705855 2.27494 1.14007 1.82336C1.57429 1.37177 2.16322 1.11807 2.7773 1.11807H7.98692C8.601 1.11807 9.18993 1.37177 9.62414 1.82336C10.0584 2.27494 10.3023 2.88743 10.3023 3.52607V8.94207C10.3026 9.25846 10.2429 9.57181 10.1266 9.86419C10.0104 10.1566 9.83985 10.4223 9.62482 10.6461C9.40979 10.8699 9.15446 11.0474 8.87342 11.1686C8.59238 11.2897 8.29114 11.3531 7.98692 11.3531ZM14.934 13.7611H20.1408C20.7548 13.7611 21.3438 14.0148 21.778 14.4664C22.2122 14.9179 22.4561 15.5304 22.4561 16.1691V21.5881C22.4561 22.2267 22.2122 22.8392 21.778 23.2908C21.3438 23.7424 20.7548 23.9961 20.1408 23.9961H14.9302C14.3161 23.9961 13.7272 23.7424 13.293 23.2908C12.8587 22.8392 12.6148 22.2267 12.6148 21.5881V16.1691C12.6148 15.8525 12.6748 15.5391 12.7914 15.2466C12.908 14.9542 13.0789 14.6886 13.2943 14.4649C13.5097 14.2413 13.7654 14.064 14.0468 13.9432C14.3282 13.8224 14.6296 13.7605 14.934 13.7611Z" fill="#565656"/>
</svg>
